<svg xmlns="http://www.w3.org/2000/svg" viewBox="21.6 272.7 5803.6 951.6" fill="none">
  <path d="M222.8072509765625 1022.277099609375Q165.9759521484375 1022.277099609375 122.24102783203125 1001.1385498046875Q78.506103515625 980.0 54.04827880859375 943.4036254882812Q29.5904541015625 906.8072509765625 29.5904541015625 860.2530517578125Q29.5904541015625 806.2530517578125 57.5904541015625 775.0723266601562Q85.5904541015625 743.8916015625 147.951904296875 730.2108764648438Q210.3133544921875 716.5301513671875 313.12060546875 716.5301513671875H368.22900390625V800.66259765625H312.843505859375Q273.831298828125 800.66259765625 248.64447021484375 806.3433227539062Q223.4576416015625 812.0240478515625 211.46966552734375 823.331298828125Q199.481689453125 834.6385498046875 199.481689453125 852.9759521484375Q199.481689453125 876.397705078125 215.77691650390625 891.3314819335938Q232.0721435546875 906.2652587890625 263.493896484375 906.2652587890625Q288.1927490234375 906.2652587890625 307.62652587890625 895.235107421875Q327.060302734375 884.2049560546875 338.8675537109375 864.5482788085938Q350.6748046875 844.8916015625 350.6748046875 818.831298828125V703.1927490234375Q350.6748046875 666.602294921875 332.506103515625 651.9456176757812Q314.33740234375 637.2889404296875 269.3614501953125 637.2889404296875Q244.831298828125 637.2889404296875 215.16259765625 642.6925659179688Q185.493896484375 648.09619140625 147.8553466796875 661.9034423828125Q121.1927490234375 671.5419921875 101.90362548828125 664.6685180664062Q82.614501953125 657.7950439453125 72.37957763671875 641.1444702148438Q62.1446533203125 624.493896484375 62.46392822265625 604.385498046875Q62.783203125 584.277099609375 75.2530517578125 565.94580078125Q87.722900390625 547.614501953125 114.385498046875 538.060302734375Q161.66259765625 520.33740234375 202.56622314453125 513.9337768554688Q243.4698486328125 507.5301513671875 277.1927490234375 507.5301513671875Q359.4095458984375 507.5301513671875 412.61431884765625 531.1265258789062Q465.819091796875 554.722900390625 492.33111572265625 603.3734741210938Q518.8431396484375 652.0240478515625 518.8431396484375 727.77099609375V930.0965576171875Q518.8431396484375 973.8675537109375 497.77691650390625 997.0723266601562Q476.710693359375 1020.277099609375 436.5782470703125 1020.277099609375Q396.44580078125 1020.277099609375 374.87957763671875 997.0723266601562Q353.3133544921875 973.8675537109375 353.3133544921875 930.0965576171875V904.44580078125L359.397705078125 917.8553466796875Q354.3133544921875 949.66259765625 336.04827880859375 972.9276733398438Q317.783203125 996.1927490234375 289.01812744140625 1009.2349243164062Q260.2530517578125 1022.277099609375 222.8072509765625 1022.277099609375Z" fill="currentColor"/>
  <path d="M792.060302734375 1022.277099609375Q729.33740234375 1022.277099609375 680.5181274414062 991.277099609375Q631.6988525390625 960.277099609375 604.3795776367188 902.1385498046875Q577.060302734375 844.0 577.060302734375 764.722900390625Q577.060302734375 684.44580078125 604.3795776367188 626.9879760742188Q631.6988525390625 569.5301513671875 680.1988525390625 538.5301513671875Q728.6988525390625 507.5301513671875 792.060302734375 507.5301513671875Q847.3133544921875 507.5301513671875 891.2169799804688 533.6988525390625Q935.12060546875 559.8675537109375 950.4820556640625 601.2049560546875H938.843505859375V386.5419921875Q938.843505859375 342.77099609375 961.8675537109375 319.7469482421875Q984.8916015625 296.722900390625 1027.66259765625 296.722900390625Q1070.43359375 296.722900390625 1093.6383666992188 319.7469482421875Q1116.8431396484375 342.77099609375 1116.8431396484375 386.5419921875V930.0965576171875Q1116.8431396484375 973.8675537109375 1094.4576416015625 997.0723266601562Q1072.0721435546875 1020.277099609375 1029.3011474609375 1020.277099609375Q986.5301513671875 1020.277099609375 963.8253784179688 997.0723266601562Q941.12060546875 973.8675537109375 941.12060546875 930.0965576171875V872.5301513671875L952.12060546875 921.6866455078125Q938.397705078125 966.66259765625 893.6748046875 994.4698486328125Q848.951904296875 1022.277099609375 792.060302734375 1022.277099609375ZM848.77099609375 890.8797607421875Q876.1927490234375 890.8797607421875 896.8494262695312 877.6688842773438Q917.506103515625 864.4580078125 929.4940795898438 836.62060546875Q941.4820556640625 808.783203125 941.4820556640625 764.722900390625Q941.4820556640625 698.1324462890625 915.4639282226562 668.5299682617188Q889.44580078125 638.927490234375 848.77099609375 638.927490234375Q821.98779296875 638.927490234375 801.0118408203125 651.9576416015625Q780.035888671875 664.98779296875 768.0479125976562 692.5059204101562Q756.0599365234375 720.0240478515625 756.0599365234375 764.722900390625Q756.0599365234375 830.951904296875 782.0780639648438 860.9158325195312Q808.09619140625 890.8797607421875 848.77099609375 890.8797607421875Z" fill="currentColor"/>
  <path d="M1468.048095703125 1022.277099609375Q1378.0240478515625 1022.277099609375 1312.5963745117188 990.6385498046875Q1247.168701171875 959.0 1212.114501953125 901.0421752929688Q1177.060302734375 843.0843505859375 1177.060302734375 764.44580078125Q1177.060302734375 688.44580078125 1210.4759521484375 630.8072509765625Q1243.8916015625 573.168701171875 1302.5843505859375 540.3494262695312Q1361.277099609375 507.5301513671875 1436.1083984375 507.5301513671875Q1491.3011474609375 507.5301513671875 1535.993896484375 525.4879760742188Q1580.6866455078125 543.44580078125 1612.7408447265625 576.722900390625Q1644.7950439453125 610.0 1661.5721435546875 657.0963745117188Q1678.3492431640625 704.1927490234375 1678.3492431640625 762.4698486328125Q1678.3492431640625 782.385498046875 1667.1263427734375 791.885498046875Q1655.9034423828125 801.385498046875 1632.264892578125 801.385498046875H1325.9515380859375V717.2530517578125H1547.56640625L1532.2049560546875 729.6988525390625Q1532.2049560546875 693.277099609375 1521.897705078125 669.939697265625Q1511.5904541015625 646.602294921875 1492.1566772460938 634.8914184570312Q1472.722900390625 623.1805419921875 1444.3011474609375 623.1805419921875Q1413.156494140625 623.1805419921875 1390.3612670898438 637.5721435546875Q1367.5660400390625 651.9637451171875 1355.5780639648438 680.1204223632812Q1343.590087890625 708.277099609375 1343.590087890625 750.2530517578125V758.5301513671875Q1343.590087890625 829.6748046875 1375.0660400390625 860.2772827148438Q1406.5419921875 890.8797607421875 1472.602294921875 890.8797607421875Q1494.77099609375 890.8797607421875 1523.439697265625 885.6568603515625Q1552.1083984375 880.4339599609375 1577.9156494140625 870.180908203125Q1604.0240478515625 860.0965576171875 1623.216796875 866.3856811523438Q1642.4095458984375 872.6748046875 1652.8673706054688 888.1024780273438Q1663.3251953125 903.5301513671875 1664.3673706054688 923.4578247070312Q1665.4095458984375 943.385498046875 1655.0360717773438 961.5782470703125Q1644.66259765625 979.77099609375 1621.55419921875 990.1324462890625Q1587.1927490234375 1006.385498046875 1547.7589721679688 1014.331298828125Q1508.3251953125 1022.277099609375 1468.048095703125 1022.277099609375Z" fill="currentColor"/>
  <path d="M1823.4095458984375 1020.277099609375Q1780.6385498046875 1020.277099609375 1757.614501953125 997.0723266601562Q1734.5904541015625 973.8675537109375 1734.5904541015625 930.0965576171875V599.3492431640625Q1734.5904541015625 555.5782470703125 1757.2952270507812 532.55419921875Q1780.0 509.5301513671875 1821.77099609375 509.5301513671875Q1863.5419921875 509.5301513671875 1885.927490234375 532.55419921875Q1908.31298828125 555.5782470703125 1908.31298828125 599.3492431640625V645.6385498046875L1897.31298828125 604.6748046875Q1921.2286376953125 558.060302734375 1965.81298828125 532.7952270507812Q2010.3973388671875 507.5301513671875 2066.8431396484375 507.5301513671875Q2125.8431396484375 507.5301513671875 2163.8431396484375 530.4879760742188Q2201.8431396484375 553.44580078125 2220.8431396484375 600.5Q2239.8431396484375 647.55419921875 2239.8431396484375 720.0240478515625V930.0965576171875Q2239.8431396484375 973.8675537109375 2216.819091796875 997.0723266601562Q2193.7950439453125 1020.277099609375 2151.0240478515625 1020.277099609375Q2108.2530517578125 1020.277099609375 2085.0482788085938 997.0723266601562Q2061.843505859375 973.8675537109375 2061.843505859375 930.0965576171875V727.3011474609375Q2061.843505859375 682.43359375 2046.4097290039062 663.1383666992188Q2030.9759521484375 643.8431396484375 2000.66259765625 643.8431396484375Q1960.98779296875 643.8431396484375 1936.7889404296875 669.4034423828125Q1912.590087890625 694.9637451171875 1912.590087890625 737.9156494140625V930.0965576171875Q1912.590087890625 1020.277099609375 1823.4095458984375 1020.277099609375Z" fill="currentColor"/>
  <path d="M12 21.35l-1.45-1.32C5.4 15.36 2 12.28 2 8.5 2 5.42 4.42 3 7.5 3c1.74 0 3.41.81 4.5 2.09C13.09 3.81 14.76 3 16.5 3 19.58 3 22 5.42 22 8.5c0 3.78-3.4 6.86-8.55 11.54L12 21.35z" transform="translate(2289.00 472.00) scale(17.5000)" fill="#F2705E"/>
  <path d="M2951.8072509765625 1022.277099609375Q2894.9759521484375 1022.277099609375 2851.2410278320312 1001.1385498046875Q2807.506103515625 980.0 2783.0482788085938 943.4036254882812Q2758.5904541015625 906.8072509765625 2758.5904541015625 860.2530517578125Q2758.5904541015625 806.2530517578125 2786.5904541015625 775.0723266601562Q2814.5904541015625 743.8916015625 2876.951904296875 730.2108764648438Q2939.3133544921875 716.5301513671875 3042.12060546875 716.5301513671875H3097.22900390625V800.66259765625H3041.843505859375Q3002.831298828125 800.66259765625 2977.6444702148438 806.3433227539062Q2952.4576416015625 812.0240478515625 2940.4696655273438 823.331298828125Q2928.481689453125 834.6385498046875 2928.481689453125 852.9759521484375Q2928.481689453125 876.397705078125 2944.7769165039062 891.3314819335938Q2961.0721435546875 906.2652587890625 2992.493896484375 906.2652587890625Q3017.1927490234375 906.2652587890625 3036.6265258789062 895.235107421875Q3056.060302734375 884.2049560546875 3067.8675537109375 864.5482788085938Q3079.6748046875 844.8916015625 3079.6748046875 818.831298828125V703.1927490234375Q3079.6748046875 666.602294921875 3061.506103515625 651.9456176757812Q3043.33740234375 637.2889404296875 2998.3614501953125 637.2889404296875Q2973.831298828125 637.2889404296875 2944.16259765625 642.6925659179688Q2914.493896484375 648.09619140625 2876.8553466796875 661.9034423828125Q2850.1927490234375 671.5419921875 2830.9036254882812 664.6685180664062Q2811.614501953125 657.7950439453125 2801.3795776367188 641.1444702148438Q2791.1446533203125 624.493896484375 2791.4639282226562 604.385498046875Q2791.783203125 584.277099609375 2804.2530517578125 565.94580078125Q2816.722900390625 547.614501953125 2843.385498046875 538.060302734375Q2890.66259765625 520.33740234375 2931.5662231445312 513.9337768554688Q2972.4698486328125 507.5301513671875 3006.1927490234375 507.5301513671875Q3088.4095458984375 507.5301513671875 3141.6143188476562 531.1265258789062Q3194.819091796875 554.722900390625 3221.3311157226562 603.3734741210938Q3247.8431396484375 652.0240478515625 3247.8431396484375 727.77099609375V930.0965576171875Q3247.8431396484375 973.8675537109375 3226.7769165039062 997.0723266601562Q3205.710693359375 1020.277099609375 3165.5782470703125 1020.277099609375Q3125.44580078125 1020.277099609375 3103.8795776367188 997.0723266601562Q3082.3133544921875 973.8675537109375 3082.3133544921875 930.0965576171875V904.44580078125L3088.397705078125 917.8553466796875Q3083.3133544921875 949.66259765625 3065.0482788085938 972.9276733398438Q3046.783203125 996.1927490234375 3018.0181274414062 1009.2349243164062Q2989.2530517578125 1022.277099609375 2951.8072509765625 1022.277099609375Z" fill="#F2705E"/>
  <path d="M3919.373291015625 1022.277099609375Q3862.481689453125 1022.277099609375 3817.8973388671875 994.4698486328125Q3773.31298828125 966.66259765625 3758.9515380859375 921.6866455078125L3769.9515380859375 880.722900390625V930.0965576171875Q3769.9515380859375 973.8675537109375 3747.5660400390625 997.0723266601562Q3725.1805419921875 1020.277099609375 3682.77099609375 1020.277099609375Q3640.0 1020.277099609375 3617.2952270507812 997.0723266601562Q3594.5904541015625 973.8675537109375 3594.5904541015625 930.0965576171875V386.5419921875Q3594.5904541015625 342.77099609375 3617.614501953125 319.7469482421875Q3640.6385498046875 296.722900390625 3683.4095458984375 296.722900390625Q3726.1805419921875 296.722900390625 3749.3853149414062 319.7469482421875Q3772.590087890625 342.77099609375 3772.590087890625 386.5419921875V601.2049560546875H3760.590087890625Q3775.9515380859375 559.8675537109375 3820.035888671875 533.6988525390625Q3864.1202392578125 507.5301513671875 3919.373291015625 507.5301513671875Q3983.09619140625 507.5301513671875 4031.4154663085938 538.5301513671875Q4079.7347412109375 569.5301513671875 4107.054016113281 626.9879760742188Q4134.373291015625 684.44580078125 4134.373291015625 764.722900390625Q4134.373291015625 844.0 4107.054016113281 902.1385498046875Q4079.7347412109375 960.277099609375 4031.2347412109375 991.277099609375Q3982.7347412109375 1022.277099609375 3919.373291015625 1022.277099609375ZM3862.66259765625 890.8797607421875Q3890.0843505859375 890.8797607421875 3910.7410278320312 877.6688842773438Q3931.397705078125 864.4580078125 3943.3856811523438 836.62060546875Q3955.3736572265625 808.783203125 3955.3736572265625 764.722900390625Q3955.3736572265625 698.1324462890625 3929.3555297851562 668.5299682617188Q3903.33740234375 638.927490234375 3862.66259765625 638.927490234375Q3835.87939453125 638.927490234375 3814.9034423828125 651.9576416015625Q3793.927490234375 664.98779296875 3781.9395141601562 692.5059204101562Q3769.9515380859375 720.0240478515625 3769.9515380859375 764.722900390625Q3769.9515380859375 830.951904296875 3795.9696655273438 860.9158325195312Q3821.98779296875 890.8797607421875 3862.66259765625 890.8797607421875Z" fill="#A08C83"/>
  <path d="M4365.8072509765625 1022.277099609375Q4308.9759521484375 1022.277099609375 4265.241027832031 1001.1385498046875Q4221.506103515625 980.0 4197.048278808594 943.4036254882812Q4172.5904541015625 906.8072509765625 4172.5904541015625 860.2530517578125Q4172.5904541015625 806.2530517578125 4200.5904541015625 775.0723266601562Q4228.5904541015625 743.8916015625 4290.951904296875 730.2108764648438Q4353.3133544921875 716.5301513671875 4456.12060546875 716.5301513671875H4511.22900390625V800.66259765625H4455.843505859375Q4416.831298828125 800.66259765625 4391.644470214844 806.3433227539062Q4366.4576416015625 812.0240478515625 4354.469665527344 823.331298828125Q4342.481689453125 834.6385498046875 4342.481689453125 852.9759521484375Q4342.481689453125 876.397705078125 4358.776916503906 891.3314819335938Q4375.0721435546875 906.2652587890625 4406.493896484375 906.2652587890625Q4431.1927490234375 906.2652587890625 4450.626525878906 895.235107421875Q4470.060302734375 884.2049560546875 4481.8675537109375 864.5482788085938Q4493.6748046875 844.8916015625 4493.6748046875 818.831298828125V703.1927490234375Q4493.6748046875 666.602294921875 4475.506103515625 651.9456176757812Q4457.33740234375 637.2889404296875 4412.3614501953125 637.2889404296875Q4387.831298828125 637.2889404296875 4358.16259765625 642.6925659179688Q4328.493896484375 648.09619140625 4290.8553466796875 661.9034423828125Q4264.1927490234375 671.5419921875 4244.903625488281 664.6685180664062Q4225.614501953125 657.7950439453125 4215.379577636719 641.1444702148438Q4205.1446533203125 624.493896484375 4205.463928222656 604.385498046875Q4205.783203125 584.277099609375 4218.2530517578125 565.94580078125Q4230.722900390625 547.614501953125 4257.385498046875 538.060302734375Q4304.66259765625 520.33740234375 4345.566223144531 513.9337768554688Q4386.4698486328125 507.5301513671875 4420.1927490234375 507.5301513671875Q4502.4095458984375 507.5301513671875 4555.614318847656 531.1265258789062Q4608.819091796875 554.722900390625 4635.331115722656 603.3734741210938Q4661.8431396484375 652.0240478515625 4661.8431396484375 727.77099609375V930.0965576171875Q4661.8431396484375 973.8675537109375 4640.776916503906 997.0723266601562Q4619.710693359375 1020.277099609375 4579.5782470703125 1020.277099609375Q4539.44580078125 1020.277099609375 4517.879577636719 997.0723266601562Q4496.3133544921875 973.8675537109375 4496.3133544921875 930.0965576171875V904.44580078125L4502.397705078125 917.8553466796875Q4497.3133544921875 949.66259765625 4479.048278808594 972.9276733398438Q4460.783203125 996.1927490234375 4432.018127441406 1009.2349243164062Q4403.2530517578125 1022.277099609375 4365.8072509765625 1022.277099609375Z" fill="#A08C83"/>
  <path d="M5067.373291015625 1022.277099609375Q5010.481689453125 1022.277099609375 4965.8973388671875 994.4698486328125Q4921.31298828125 966.66259765625 4906.9515380859375 921.6866455078125L4917.9515380859375 880.722900390625V930.0965576171875Q4917.9515380859375 973.8675537109375 4895.5660400390625 997.0723266601562Q4873.1805419921875 1020.277099609375 4830.77099609375 1020.277099609375Q4788.0 1020.277099609375 4765.295227050781 997.0723266601562Q4742.5904541015625 973.8675537109375 4742.5904541015625 930.0965576171875V386.5419921875Q4742.5904541015625 342.77099609375 4765.614501953125 319.7469482421875Q4788.6385498046875 296.722900390625 4831.4095458984375 296.722900390625Q4874.1805419921875 296.722900390625 4897.385314941406 319.7469482421875Q4920.590087890625 342.77099609375 4920.590087890625 386.5419921875V601.2049560546875H4908.590087890625Q4923.9515380859375 559.8675537109375 4968.035888671875 533.6988525390625Q5012.1202392578125 507.5301513671875 5067.373291015625 507.5301513671875Q5131.09619140625 507.5301513671875 5179.415466308594 538.5301513671875Q5227.7347412109375 569.5301513671875 5255.054016113281 626.9879760742188Q5282.373291015625 684.44580078125 5282.373291015625 764.722900390625Q5282.373291015625 844.0 5255.054016113281 902.1385498046875Q5227.7347412109375 960.277099609375 5179.2347412109375 991.277099609375Q5130.7347412109375 1022.277099609375 5067.373291015625 1022.277099609375ZM5010.66259765625 890.8797607421875Q5038.0843505859375 890.8797607421875 5058.741027832031 877.6688842773438Q5079.397705078125 864.4580078125 5091.385681152344 836.62060546875Q5103.3736572265625 808.783203125 5103.3736572265625 764.722900390625Q5103.3736572265625 698.1324462890625 5077.355529785156 668.5299682617188Q5051.33740234375 638.927490234375 5010.66259765625 638.927490234375Q4983.87939453125 638.927490234375 4962.9034423828125 651.9576416015625Q4941.927490234375 664.98779296875 4929.939514160156 692.5059204101562Q4917.9515380859375 720.0240478515625 4917.9515380859375 764.722900390625Q4917.9515380859375 830.951904296875 4943.969665527344 860.9158325195312Q4969.98779296875 890.8797607421875 5010.66259765625 890.8797607421875Z" fill="#A08C83"/>
  <path d="M5485.7469482421875 1200.277099609375Q5455.44580078125 1200.277099609375 5436.018127441406 1184.3072509765625Q5416.5904541015625 1168.33740234375 5412.1748046875 1142.3133544921875Q5407.7591552734375 1116.289306640625 5421.22900390625 1086.9881591796875L5487.951904296875 942.3736572265625V1013.5301513671875L5316.8072509765625 623.1805419921875Q5303.9759521484375 592.87939453125 5308.572326660156 567.1746215820312Q5313.168701171875 541.4698486328125 5335.05419921875 525.5Q5356.939697265625 509.5301513671875 5394.7950439453125 509.5301513671875Q5426.7347412109375 509.5301513671875 5446.162414550781 524.1807250976562Q5465.590087890625 538.831298828125 5481.698486328125 581.2408447265625L5582.216796875 840.976318359375H5548.385498046875L5653.8194580078125 579.602294921875Q5669.9278564453125 539.4698486328125 5690.6748046875 524.5Q5711.4217529296875 509.5301513671875 5746.0 509.5301513671875Q5775.66259765625 509.5301513671875 5793.77099609375 525.5Q5811.87939453125 541.4698486328125 5816.156494140625 566.993896484375Q5820.43359375 592.5179443359375 5806.602294921875 622.819091796875L5579.5660400390625 1133.12060546875Q5562.09619140625 1172.614501953125 5540.391418457031 1186.44580078125Q5518.6866455078125 1200.277099609375 5485.7469482421875 1200.277099609375Z" fill="#A08C83"/>
</svg>